<svg width="155" height="34" viewBox="0 0 155 34" fill="none" xmlns="http://www.w3.org/2000/svg">
<path d="M19.0394 18.9522C20.7532 19.3589 22.0787 20.1994 23.016 21.4737C23.98 22.7209 24.462 24.1715 24.462 25.8254C24.462 28.3469 23.6319 30.299 21.9716 31.6818C20.3382 33.0375 17.9817 33.7153 14.9021 33.7153H0V4.92105H14.5005C17.3925 4.92105 19.6687 5.55822 21.3289 6.83254C22.9892 8.10686 23.8193 9.96412 23.8193 12.4043C23.8193 14.0853 23.3775 15.5088 22.4938 16.6746C21.6369 17.8134 20.4854 18.5726 19.0394 18.9522ZM8.91719 16.1459H12.3716C13.1749 16.1459 13.7641 15.9833 14.139 15.6579C14.5406 15.3325 14.7415 14.8309 14.7415 14.1531C14.7415 13.4482 14.5406 12.933 14.139 12.6077C13.7641 12.2552 13.1749 12.0789 12.3716 12.0789H8.91719V16.1459ZM12.9741 26.4761C13.7775 26.4761 14.3666 26.327 14.7415 26.0287C15.1432 25.7033 15.344 25.1882 15.344 24.4833C15.344 23.1005 14.554 22.4091 12.9741 22.4091H8.91719V26.4761H12.9741Z" fill="#8B6EFF"/>
<path d="M31.957 8.94737C30.4039 8.94737 29.1587 8.52711 28.2214 7.6866C27.2842 6.84609 26.8156 5.78868 26.8156 4.51435C26.8156 3.21292 27.2842 2.14195 28.2214 1.30144C29.1587 0.433812 30.4039 0 31.957 0C33.4834 0 34.7152 0.433812 35.6524 1.30144C36.5897 2.14195 37.0583 3.21292 37.0583 4.51435C37.0583 5.78868 36.5897 6.84609 35.6524 7.6866C34.7152 8.52711 33.4834 8.94737 31.957 8.94737ZM36.3755 10.7775V33.7153H27.4583V10.7775H36.3755Z" fill="#8B6EFF"/>
<path d="M51.1678 34C48.8916 34 46.8431 33.5255 45.0221 32.5766C43.2012 31.6276 41.7686 30.2719 40.7242 28.5096C39.7066 26.7201 39.1978 24.6324 39.1978 22.2464C39.1978 19.8604 39.7066 17.7863 40.7242 16.0239C41.7686 14.2344 43.2012 12.8652 45.0221 11.9163C46.8431 10.9673 48.8916 10.4928 51.1678 10.4928C53.4439 10.4928 55.4925 10.9673 57.3134 11.9163C59.1343 12.8652 60.5536 14.2344 61.5711 16.0239C62.6155 17.7863 63.1377 19.8604 63.1377 22.2464C63.1377 24.6324 62.6155 26.7201 61.5711 28.5096C60.5536 30.2719 59.1343 31.6276 57.3134 32.5766C55.4925 33.5255 53.4439 34 51.1678 34ZM51.1678 26.1914C51.9979 26.1914 52.6941 25.866 53.2565 25.2153C53.8188 24.5375 54.1 23.5478 54.1 22.2464C54.1 20.945 53.8188 19.9689 53.2565 19.3182C52.6941 18.6404 51.9979 18.3014 51.1678 18.3014C50.3376 18.3014 49.6414 18.6404 49.0791 19.3182C48.5167 19.9689 48.2355 20.945 48.2355 22.2464C48.2355 23.5478 48.5033 24.5375 49.0389 25.2153C49.6012 25.866 50.3109 26.1914 51.1678 26.1914Z" fill="#8B6EFF"/>
<path d="M76.7039 34C74.4278 34 72.3792 33.5255 70.5583 32.5766C68.7374 31.6276 67.3047 30.2719 66.2604 28.5096C65.2428 26.7201 64.734 24.6324 64.734 22.2464C64.734 19.8604 65.2428 17.7863 66.2604 16.0239C67.3047 14.2344 68.7374 12.8652 70.5583 11.9163C72.3792 10.9673 74.4278 10.4928 76.7039 10.4928C78.9801 10.4928 81.0286 10.9673 82.8496 11.9163C84.6705 12.8652 86.0898 14.2344 87.1073 16.0239C88.1517 17.7863 88.6739 19.8604 88.6739 22.2464C88.6739 24.6324 88.1517 26.7201 87.1073 28.5096C86.0898 30.2719 84.6705 31.6276 82.8496 32.5766C81.0286 33.5255 78.9801 34 76.7039 34ZM76.7039 26.1914C77.5341 26.1914 78.2303 25.866 78.7927 25.2153C79.355 24.5375 79.6362 23.5478 79.6362 22.2464C79.6362 20.945 79.355 19.9689 78.7927 19.3182C78.2303 18.6404 77.5341 18.3014 76.7039 18.3014C75.8738 18.3014 75.1776 18.6404 74.6152 19.3182C74.0529 19.9689 73.7717 20.945 73.7717 22.2464C73.7717 23.5478 74.0395 24.5375 74.5751 25.2153C75.1374 25.866 75.847 26.1914 76.7039 26.1914Z" fill="#8B6EFF"/>
<path d="M102.24 34C99.964 34 97.9154 33.5255 96.0945 32.5766C94.2736 31.6276 92.8409 30.2719 91.7966 28.5096C90.779 26.7201 90.2702 24.6324 90.2702 22.2464C90.2702 19.8604 90.779 17.7863 91.7966 16.0239C92.8409 14.2344 94.2736 12.8652 96.0945 11.9163C97.9154 10.9673 99.964 10.4928 102.24 10.4928C104.516 10.4928 106.565 10.9673 108.386 11.9163C110.207 12.8652 111.626 14.2344 112.644 16.0239C113.688 17.7863 114.21 19.8604 114.21 22.2464C114.21 24.6324 113.688 26.7201 112.644 28.5096C111.626 30.2719 110.207 31.6276 108.386 32.5766C106.565 33.5255 104.516 34 102.24 34ZM102.24 26.1914C103.07 26.1914 103.766 25.866 104.329 25.2153C104.891 24.5375 105.172 23.5478 105.172 22.2464C105.172 20.945 104.891 19.9689 104.329 19.3182C103.766 18.6404 103.07 18.3014 102.24 18.3014C101.41 18.3014 100.714 18.6404 100.151 19.3182C99.5891 19.9689 99.3079 20.945 99.3079 22.2464C99.3079 23.5478 99.5757 24.5375 100.111 25.2153C100.674 25.866 101.383 26.1914 102.24 26.1914Z" fill="#8B6EFF"/>
<path d="M118.216 33.878C117.44 33.878 116.817 33.6679 116.349 33.2476C115.88 32.8274 115.646 32.2986 115.646 31.6615C115.646 31.0108 115.88 30.4753 116.349 30.055C116.817 29.6212 117.44 29.4043 118.216 29.4043C118.98 29.4043 119.596 29.6212 120.064 30.055C120.533 30.4753 120.767 31.0108 120.767 31.6615C120.767 32.2986 120.533 32.8274 120.064 33.2476C119.596 33.6679 118.98 33.878 118.216 33.878Z" fill="#8B6EFF"/>
<path d="M137.544 22.1651C138.99 22.1651 140.108 22.6057 140.898 23.4868C141.701 24.368 142.103 25.561 142.103 27.0658V33.7153H137.664V27.6352C137.664 27.1471 137.517 26.7675 137.222 26.4964C136.941 26.2117 136.56 26.0694 136.078 26.0694C135.582 26.0694 135.194 26.2117 134.913 26.4964C134.632 26.7675 134.491 27.1471 134.491 27.6352V33.7153H130.053V27.6352C130.053 27.1471 129.905 26.7675 129.611 26.4964C129.329 26.2117 128.948 26.0694 128.466 26.0694C127.971 26.0694 127.582 26.2117 127.301 26.4964C127.02 26.7675 126.879 27.1471 126.879 27.6352V33.7153H122.421V22.2464H126.879V23.7919C127.201 23.3038 127.636 22.9107 128.185 22.6124C128.747 22.3142 129.403 22.1651 130.153 22.1651C130.97 22.1651 131.693 22.3481 132.322 22.7141C132.951 23.0666 133.453 23.5682 133.828 24.2189C134.243 23.6224 134.772 23.1344 135.415 22.7548C136.058 22.3616 136.767 22.1651 137.544 22.1651Z" fill="#8B6EFF"/>
<path d="M155 27.8792C155 28.191 154.98 28.4892 154.94 28.7739H147.77C147.837 29.7636 148.245 30.2584 148.995 30.2584C149.477 30.2584 149.825 30.0347 150.039 29.5873H154.759C154.598 30.4007 154.257 31.1328 153.735 31.7835C153.226 32.4207 152.577 32.929 151.787 33.3086C151.01 33.6746 150.153 33.8577 149.216 33.8577C148.091 33.8577 147.087 33.6204 146.203 33.1459C145.333 32.6715 144.65 31.9936 144.155 31.1124C143.673 30.2177 143.432 29.1738 143.432 27.9809C143.432 26.7879 143.673 25.7508 144.155 24.8696C144.65 23.9749 145.333 23.2903 146.203 22.8158C147.087 22.3413 148.091 22.1041 149.216 22.1041C150.341 22.1041 151.338 22.3413 152.208 22.8158C153.092 23.2767 153.775 23.941 154.257 24.8086C154.752 25.6762 155 26.6998 155 27.8792ZM150.481 26.9234C150.481 26.4896 150.361 26.1711 150.12 25.9677C149.879 25.7508 149.577 25.6423 149.216 25.6423C148.399 25.6423 147.931 26.0694 147.81 26.9234H150.481Z" fill="#8B6EFF"/>
</svg>
